<svg xmlns="http://www.w3.org/2000/svg" viewBox="0 0 570 570"><defs><style>.cls-1{fill:#e31c4c;}.cls-2{fill:#fff;}</style></defs><title>Asset 4</title><g id="Layer_2" data-name="Layer 2"><g id="Layer_1-2" data-name="Layer 1"><rect class="cls-1" width="570" height="570"/><path class="cls-2" d="M62.75,77H164.56q52.13,0,76.05,24.23t23.92,74.51v17.18q0,33.1-10.74,54A62.89,62.89,0,0,1,221,276.93v1.23q50.28,17.18,50.29,89.54v36.8q0,49.68-26.06,75.74t-76.36,26.07H62.75Zm93.83,174.79q20.25,0,30.36-10.42t10.12-35V182.48q0-23.29-8.28-33.73t-26.06-10.43H130.21V251.78ZM168.85,445q17.78,0,26.37-9.51t8.59-32.81V365.25q0-29.44-10.12-40.79t-33.43-11.35h-30V445Z"/><path class="cls-2" d="M310.52,77H378V506.31H310.52Z"/></g></g></svg>